<svg width="40" height="40" viewBox="0 0 40 40" fill="none" xmlns="http://www.w3.org/2000/svg">
<rect width="40" height="40" rx="20" fill="#2C71C0"/>
<path d="M21.9998 19H20.9998V18C20.9998 17.7348 20.8944 17.4804 20.7069 17.2929C20.5194 17.1053 20.265 17 19.9998 17C19.7346 17 19.4802 17.1053 19.2927 17.2929C19.1051 17.4804 18.9998 17.7348 18.9998 18V19H17.9998C17.7346 19 17.4802 19.1053 17.2927 19.2929C17.1051 19.4804 16.9998 19.7348 16.9998 20C16.9998 20.2652 17.1051 20.5195 17.2927 20.7071C17.4802 20.8946 17.7346 21 17.9998 21H18.9998V22C18.9998 22.2652 19.1051 22.5195 19.2927 22.7071C19.4802 22.8946 19.7346 23 19.9998 23C20.265 23 20.5194 22.8946 20.7069 22.7071C20.8944 22.5195 20.9998 22.2652 20.9998 22V21H21.9998C22.265 21 22.5194 20.8946 22.7069 20.7071C22.8944 20.5195 22.9998 20.2652 22.9998 20C22.9998 19.7348 22.8944 19.4804 22.7069 19.2929C22.5194 19.1053 22.265 19 21.9998 19ZM28.1598 13C27.0935 11.9447 25.6851 11.3052 24.1888 11.1971C22.6925 11.0889 21.2068 11.519 19.9998 12.41C18.7274 11.4636 17.1438 11.0345 15.5677 11.209C13.9916 11.3835 12.5402 12.1487 11.5058 13.3506C10.4713 14.5524 9.93061 16.1015 9.99259 17.686C10.0546 19.2705 10.7146 20.7726 11.8398 21.89L17.8398 27.94C18.4023 28.5018 19.1648 28.8173 19.9598 28.8173C20.7548 28.8173 21.5173 28.5018 22.0798 27.94L28.0798 21.89C28.6707 21.3126 29.1417 20.6242 29.4657 19.8642C29.7897 19.1042 29.9604 18.2877 29.9678 17.4616C29.9752 16.6355 29.8193 15.816 29.5091 15.0503C29.1988 14.2847 28.7402 13.5879 28.1598 13ZM26.7498 20.46L20.7498 26.46C20.6568 26.5537 20.5462 26.6281 20.4244 26.6789C20.3025 26.7296 20.1718 26.7558 20.0398 26.7558C19.9078 26.7558 19.7771 26.7296 19.6552 26.6789C19.5334 26.6281 19.4228 26.5537 19.3298 26.46L13.3298 20.46C12.5455 19.6583 12.1064 18.5814 12.1064 17.46C12.1064 16.3385 12.5455 15.2616 13.3298 14.46C14.1289 13.671 15.2068 13.2285 16.3298 13.2285C17.4528 13.2285 18.5306 13.671 19.3298 14.46C19.4228 14.5537 19.5334 14.6281 19.6552 14.6789C19.7771 14.7296 19.9078 14.7558 20.0398 14.7558C20.1718 14.7558 20.3025 14.7296 20.4244 14.6789C20.5462 14.6281 20.6568 14.5537 20.7498 14.46C21.5489 13.671 22.6268 13.2285 23.7498 13.2285C24.8728 13.2285 25.9506 13.671 26.7498 14.46C27.54 15.2625 27.983 16.3437 27.983 17.47C27.983 18.5963 27.54 19.6774 26.7498 20.48V20.46Z" fill="white"/>
</svg>
