<svg width="40" height="40" viewBox="0 0 40 40" fill="none" xmlns="http://www.w3.org/2000/svg">
<rect width="40" height="40" rx="20" fill="#2C71C0"/>
<path d="M20 10C17.8783 10 15.8434 10.8429 14.3431 12.3431C12.8429 13.8434 12 15.8783 12 18C12 23.4 19.05 29.5 19.35 29.76C19.5311 29.9149 19.7616 30.0001 20 30.0001C20.2384 30.0001 20.4689 29.9149 20.65 29.76C21 29.5 28 23.4 28 18C28 15.8783 27.1571 13.8434 25.6569 12.3431C24.1566 10.8429 22.1217 10 20 10ZM20 27.65C17.87 25.65 14 21.34 14 18C14 16.4087 14.6321 14.8826 15.7574 13.7574C16.8826 12.6321 18.4087 12 20 12C21.5913 12 23.1174 12.6321 24.2426 13.7574C25.3679 14.8826 26 16.4087 26 18C26 21.34 22.13 25.66 20 27.65ZM20 14C19.2089 14 18.4355 14.2346 17.7777 14.6741C17.1199 15.1136 16.6072 15.7384 16.3045 16.4693C16.0017 17.2002 15.9225 18.0044 16.0769 18.7804C16.2312 19.5563 16.6122 20.269 17.1716 20.8284C17.731 21.3878 18.4437 21.7688 19.2196 21.9231C19.9956 22.0775 20.7998 21.9983 21.5307 21.6955C22.2616 21.3928 22.8864 20.8801 23.3259 20.2223C23.7654 19.5645 24 18.7911 24 18C24 16.9391 23.5786 15.9217 22.8284 15.1716C22.0783 14.4214 21.0609 14 20 14ZM20 20C19.6044 20 19.2178 19.8827 18.8889 19.6629C18.56 19.4432 18.3036 19.1308 18.1522 18.7654C18.0009 18.3999 17.9613 17.9978 18.0384 17.6098C18.1156 17.2219 18.3061 16.8655 18.5858 16.5858C18.8655 16.3061 19.2219 16.1156 19.6098 16.0384C19.9978 15.9613 20.3999 16.0009 20.7654 16.1522C21.1308 16.3036 21.4432 16.56 21.6629 16.8889C21.8827 17.2178 22 17.6044 22 18C22 18.5304 21.7893 19.0391 21.4142 19.4142C21.0391 19.7893 20.5304 20 20 20Z" fill="white"/>
</svg>
