<svg width="223" height="79" viewBox="0 0 223 79" fill="none" xmlns="http://www.w3.org/2000/svg">
<path d="M17.2996 14.5H33.1224L33.9662 15.2384L34.3882 15.9768L34.4937 27.5802L34.5992 28.846L35.0211 29.4789L35.654 29.9008L36.1814 30.0063H48.2067L48.9451 30.3228L49.8945 31.2722L50 31.4831V47.6224L48.9451 48.6772L48.6287 48.7827L46.4135 48.8882H42.827L35.9705 48.9937L35.3376 49.3101L34.8101 49.7321L34.4937 50.576L34.3882 63.1287L33.7553 63.9726L33.4388 64.289L32.5949 64.5H19.9367L20.0422 63.9726L20.9916 61.4409L22.0464 58.4873L22.7848 57.0105L23.9451 55.7447L24.8945 54.5844L26.0549 53.0021L27.1097 51.3143L28.27 50.0485L31.0127 47.3059L31.3291 46.7785L31.2236 46.1456L30.8017 45.9346L30.1688 46.3565L28.692 47.6224L27.3207 48.5717L26.6878 48.7827L26.5823 48.3608L27.7426 46.9895L28.481 46.1456L29.7468 44.6688L30.4852 43.9304L30.5907 43.2975L30.1688 42.77L29.6413 42.8755L29.1139 43.2975L28.3755 44.1413L25.9494 46.5675L25.4219 46.673L25.5274 46.1456L26.6878 44.7743L28.1646 43.2975L28.903 42.4536L29.5359 41.8207V41.2932L29.1139 40.8713H28.481L27.0042 41.9262L25.7384 43.0865L24.2616 44.5633H24.0506L24.1561 44.0359L26.2658 41.0823L26.4768 40.6603L26.3713 40.0274L26.0549 39.711L25.5274 39.8165L24.5781 40.5549L23.6287 41.7152L22.7848 42.77L21.73 44.6688L21.4135 45.3017H20.9916L20.3587 43.9304L19.8312 43.5084L19.1983 43.403L18.8819 43.7194L18.9873 44.4578L19.4093 45.1962L19.3038 46.3565L18.6709 49.4156L18.3544 53.0021L17.827 54.7954L16.9831 56.5886L15.8228 58.5928L15.5063 58.6983V50.9979L15.1899 49.8376L14.4515 49.2046L13.7131 48.9937L9.49367 48.8882L1.26582 48.7827L0.316456 48.1498L0 47.4114V31.2722L0.527426 30.6392L1.26582 30.2173L1.79325 30.1118L12.3418 30.0063L14.0295 29.9008L14.7679 29.5844L15.1899 29.3734L15.4008 28.7405L15.5063 27.4747L15.6118 16.0823L15.8228 15.3439L16.6667 14.6055L17.2996 14.5Z" fill="#2C71C0"/>
<path d="M40.9282 17.4536H43.4599L43.7763 17.6646L43.8818 19.5633L44.1983 19.8798L45.886 20.0907L46.308 20.4072L46.4135 21.2511V22.8334L46.2025 23.2553L45.6751 23.4663L43.8818 23.7827L43.6708 25.8924L43.0379 26.1034H41.2447L40.6118 25.8924L40.4008 25.154L40.1898 23.7827L38.0801 23.3608L37.8692 23.2553L37.7637 22.8334V21.0401L37.8692 20.3017L38.5021 20.0907L39.9789 19.8798L40.2953 19.5633L40.4008 17.981L40.6118 17.5591L40.9282 17.4536Z" fill="#2C71C0"/>
<path d="M75.328 36.076C75.328 37.052 75.104 37.948 74.656 38.764C74.208 39.564 73.52 40.212 72.592 40.708C71.664 41.204 70.512 41.452 69.136 41.452H66.592V47.5H62.488V30.652H69.136C70.48 30.652 71.616 30.884 72.544 31.348C73.472 31.812 74.168 32.452 74.632 33.268C75.096 34.084 75.328 35.02 75.328 36.076ZM68.824 38.188C69.608 38.188 70.192 38.004 70.576 37.636C70.96 37.268 71.152 36.748 71.152 36.076C71.152 35.404 70.96 34.884 70.576 34.516C70.192 34.148 69.608 33.964 68.824 33.964H66.592V38.188H68.824ZM85.6966 33.964C87.2326 33.964 88.4646 34.476 89.3926 35.5C90.3206 36.508 90.7846 37.9 90.7846 39.676V47.5H86.7046V40.228C86.7046 39.332 86.4726 38.636 86.0086 38.14C85.5446 37.644 84.9206 37.396 84.1366 37.396C83.3526 37.396 82.7286 37.644 82.2646 38.14C81.8006 38.636 81.5686 39.332 81.5686 40.228V47.5H77.4646V29.74H81.5686V35.908C81.9846 35.316 82.5526 34.844 83.2726 34.492C83.9926 34.14 84.8006 33.964 85.6966 33.964ZM92.8204 40.78C92.8204 39.404 93.0764 38.196 93.5884 37.156C94.1164 36.116 94.8284 35.316 95.7244 34.756C96.6204 34.196 97.6204 33.916 98.7244 33.916C99.6684 33.916 100.492 34.108 101.196 34.492C101.916 34.876 102.468 35.38 102.852 36.004V34.108H106.956V47.5H102.852V45.604C102.452 46.228 101.892 46.732 101.172 47.116C100.468 47.5 99.6444 47.692 98.7004 47.692C97.6124 47.692 96.6204 47.412 95.7244 46.852C94.8284 46.276 94.1164 45.468 93.5884 44.428C93.0764 43.372 92.8204 42.156 92.8204 40.78ZM102.852 40.804C102.852 39.78 102.564 38.972 101.988 38.38C101.428 37.788 100.74 37.492 99.9244 37.492C99.1084 37.492 98.4124 37.788 97.8364 38.38C97.2764 38.956 96.9964 39.756 96.9964 40.78C96.9964 41.804 97.2764 42.62 97.8364 43.228C98.4124 43.82 99.1084 44.116 99.9244 44.116C100.74 44.116 101.428 43.82 101.988 43.228C102.564 42.636 102.852 41.828 102.852 40.804ZM114.03 36.34C114.51 35.604 115.11 35.028 115.83 34.612C116.55 34.18 117.35 33.964 118.23 33.964V38.308H117.102C116.078 38.308 115.31 38.532 114.798 38.98C114.286 39.412 114.03 40.18 114.03 41.284V47.5H109.926V34.108H114.03V36.34ZM137.279 33.964C138.943 33.964 140.263 34.468 141.239 35.476C142.231 36.484 142.727 37.884 142.727 39.676V47.5H138.647V40.228C138.647 39.364 138.415 38.7 137.951 38.236C137.503 37.756 136.879 37.516 136.079 37.516C135.279 37.516 134.647 37.756 134.183 38.236C133.735 38.7 133.511 39.364 133.511 40.228V47.5H129.431V40.228C129.431 39.364 129.199 38.7 128.735 38.236C128.287 37.756 127.663 37.516 126.863 37.516C126.063 37.516 125.431 37.756 124.967 38.236C124.519 38.7 124.295 39.364 124.295 40.228V47.5H120.191V34.108H124.295V35.788C124.711 35.228 125.255 34.788 125.927 34.468C126.599 34.132 127.359 33.964 128.207 33.964C129.215 33.964 130.111 34.18 130.895 34.612C131.695 35.044 132.319 35.66 132.767 36.46C133.231 35.724 133.863 35.124 134.663 34.66C135.463 34.196 136.335 33.964 137.279 33.964ZM144.781 40.78C144.781 39.404 145.037 38.196 145.549 37.156C146.077 36.116 146.789 35.316 147.685 34.756C148.581 34.196 149.581 33.916 150.685 33.916C151.629 33.916 152.453 34.108 153.157 34.492C153.877 34.876 154.429 35.38 154.813 36.004V34.108H158.917V47.5H154.813V45.604C154.413 46.228 153.853 46.732 153.133 47.116C152.429 47.5 151.605 47.692 150.661 47.692C149.573 47.692 148.581 47.412 147.685 46.852C146.789 46.276 146.077 45.468 145.549 44.428C145.037 43.372 144.781 42.156 144.781 40.78ZM154.813 40.804C154.813 39.78 154.525 38.972 153.949 38.38C153.389 37.788 152.701 37.492 151.885 37.492C151.069 37.492 150.373 37.788 149.797 38.38C149.237 38.956 148.957 39.756 148.957 40.78C148.957 41.804 149.237 42.62 149.797 43.228C150.373 43.82 151.069 44.116 151.885 44.116C152.701 44.116 153.389 43.82 153.949 43.228C154.525 42.636 154.813 41.828 154.813 40.804Z" fill="#1F2937"/>
<path d="M167.982 47.668C166.75 47.668 165.646 47.468 164.67 47.068C163.694 46.668 162.91 46.076 162.318 45.292C161.742 44.508 161.438 43.564 161.406 42.46H165.774C165.838 43.084 166.054 43.564 166.422 43.9C166.79 44.22 167.27 44.38 167.862 44.38C168.47 44.38 168.95 44.244 169.302 43.972C169.654 43.684 169.83 43.292 169.83 42.796C169.83 42.38 169.686 42.036 169.398 41.764C169.126 41.492 168.782 41.268 168.366 41.092C167.966 40.916 167.39 40.716 166.638 40.492C165.55 40.156 164.662 39.82 163.974 39.484C163.286 39.148 162.694 38.652 162.198 37.996C161.702 37.34 161.454 36.484 161.454 35.428C161.454 33.86 162.022 32.636 163.158 31.756C164.294 30.86 165.774 30.412 167.598 30.412C169.454 30.412 170.95 30.86 172.086 31.756C173.222 32.636 173.83 33.868 173.91 35.452H169.47C169.438 34.908 169.238 34.484 168.87 34.18C168.502 33.86 168.03 33.7 167.454 33.7C166.958 33.7 166.558 33.836 166.254 34.108C165.95 34.364 165.798 34.74 165.798 35.236C165.798 35.78 166.054 36.204 166.566 36.508C167.078 36.812 167.878 37.14 168.966 37.492C170.054 37.86 170.934 38.212 171.606 38.548C172.294 38.884 172.886 39.372 173.382 40.012C173.878 40.652 174.126 41.476 174.126 42.484C174.126 43.444 173.878 44.316 173.382 45.1C172.902 45.884 172.198 46.508 171.27 46.972C170.342 47.436 169.246 47.668 167.982 47.668ZM184.884 33.964C186.42 33.964 187.652 34.476 188.58 35.5C189.508 36.508 189.972 37.9 189.972 39.676V47.5H185.892V40.228C185.892 39.332 185.66 38.636 185.196 38.14C184.732 37.644 184.108 37.396 183.324 37.396C182.54 37.396 181.916 37.644 181.452 38.14C180.988 38.636 180.756 39.332 180.756 40.228V47.5H176.652V29.74H180.756V35.908C181.172 35.316 181.74 34.844 182.46 34.492C183.18 34.14 183.988 33.964 184.884 33.964ZM198.92 47.692C197.608 47.692 196.424 47.412 195.368 46.852C194.328 46.292 193.504 45.492 192.896 44.452C192.304 43.412 192.008 42.196 192.008 40.804C192.008 39.428 192.312 38.22 192.92 37.18C193.528 36.124 194.36 35.316 195.416 34.756C196.472 34.196 197.656 33.916 198.968 33.916C200.28 33.916 201.464 34.196 202.52 34.756C203.576 35.316 204.408 36.124 205.016 37.18C205.624 38.22 205.928 39.428 205.928 40.804C205.928 42.18 205.616 43.396 204.992 44.452C204.384 45.492 203.544 46.292 202.472 46.852C201.416 47.412 200.232 47.692 198.92 47.692ZM198.92 44.14C199.704 44.14 200.368 43.852 200.912 43.276C201.472 42.7 201.752 41.876 201.752 40.804C201.752 39.732 201.48 38.908 200.936 38.332C200.408 37.756 199.752 37.468 198.968 37.468C198.168 37.468 197.504 37.756 196.976 38.332C196.448 38.892 196.184 39.716 196.184 40.804C196.184 41.876 196.44 42.7 196.952 43.276C197.48 43.852 198.136 44.14 198.92 44.14ZM212.209 36.004C212.609 35.38 213.161 34.876 213.865 34.492C214.569 34.108 215.393 33.916 216.337 33.916C217.441 33.916 218.441 34.196 219.337 34.756C220.233 35.316 220.937 36.116 221.449 37.156C221.977 38.196 222.241 39.404 222.241 40.78C222.241 42.156 221.977 43.372 221.449 44.428C220.937 45.468 220.233 46.276 219.337 46.852C218.441 47.412 217.441 47.692 216.337 47.692C215.409 47.692 214.585 47.5 213.865 47.116C213.161 46.732 212.609 46.236 212.209 45.628V53.884H208.105V34.108H212.209V36.004ZM218.065 40.78C218.065 39.756 217.777 38.956 217.201 38.38C216.641 37.788 215.945 37.492 215.113 37.492C214.297 37.492 213.601 37.788 213.025 38.38C212.465 38.972 212.185 39.78 212.185 40.804C212.185 41.828 212.465 42.636 213.025 43.228C213.601 43.82 214.297 44.116 215.113 44.116C215.929 44.116 216.625 43.82 217.201 43.228C217.777 42.62 218.065 41.804 218.065 40.78Z" fill="#2C71C0"/>
</svg>
