<svg width="59" height="50" viewBox="0 0 59 50" fill="none" xmlns="http://www.w3.org/2000/svg">
<path d="M21.7996 0H37.6224L38.4662 0.738397L38.8882 1.47679L38.9937 13.0802L39.0992 14.346L39.5211 14.9789L40.154 15.4008L40.6814 15.5063H52.7068L53.4451 15.8228L54.3945 16.7722L54.5 16.9831V33.1224L53.4451 34.1772L53.1287 34.2827L50.9135 34.3882H47.327L40.4705 34.4937L39.8376 34.8101L39.3101 35.2321L38.9937 36.0759L38.8882 48.6287L38.2553 49.4726L37.9388 49.789L37.0949 50H24.4367L24.5422 49.4726L25.4916 46.9409L26.5464 43.9873L27.2848 42.5105L28.4451 41.2447L29.3945 40.0844L30.5549 38.5021L31.6097 36.8143L32.77 35.5485L35.5127 32.8059L35.8291 32.2785L35.7236 31.6456L35.3017 31.4346L34.6688 31.8565L33.192 33.1224L31.8207 34.0717L31.1878 34.2827L31.0823 33.8608L32.2426 32.4895L32.981 31.6456L34.2468 30.1688L34.9852 29.4304L35.0907 28.7975L34.6688 28.27L34.1413 28.3755L33.6139 28.7975L32.8755 29.6413L30.4494 32.0675L29.9219 32.173L30.0274 31.6456L31.1878 30.2743L32.6646 28.7975L33.403 27.9536L34.0359 27.3207V26.7932L33.6139 26.3713H32.981L31.5042 27.4262L30.2384 28.5865L28.7616 30.0633H28.5506L28.6561 29.5359L30.7658 26.5823L30.9768 26.1603L30.8713 25.5274L30.5549 25.211L30.0274 25.3165L29.0781 26.0549L28.1287 27.2152L27.2848 28.27L26.23 30.1688L25.9135 30.8017H25.4916L24.8586 29.4304L24.3312 29.0084L23.6983 28.903L23.3819 29.2194L23.4873 29.9578L23.9093 30.6962L23.8038 31.8565L23.1709 34.9156L22.8544 38.5021L22.327 40.2954L21.4831 42.0886L20.3228 44.0928L20.0063 44.1983V36.4979L19.6899 35.3376L18.9515 34.7046L18.2131 34.4937L13.9937 34.3882L5.76582 34.2827L4.81646 33.6498L4.5 32.9114V16.7722L5.02743 16.1392L5.76582 15.7173L6.29325 15.6118L16.8418 15.5063L18.5295 15.4008L19.2679 15.0844L19.6899 14.8734L19.9008 14.2405L20.0063 12.9747L20.1118 1.58228L20.3228 0.843882L21.1667 0.105485L21.7996 0Z" fill="#2C71C0"/>
<path d="M45.4282 2.95349H47.9599L48.2763 3.16446L48.3818 5.0632L48.6983 5.37965L50.386 5.59062L50.808 5.90708L50.9135 6.75096V8.33324L50.7025 8.75518L50.1751 8.96615L48.3818 9.28261L48.1708 11.3923L47.5379 11.6033H45.7447L45.1118 11.3923L44.9008 10.6539L44.6898 9.28261L42.5801 8.86066L42.3692 8.75518L42.2637 8.33324V6.53999L42.3692 5.80159L43.0021 5.59062L44.4789 5.37965L44.7953 5.0632L44.9008 3.48092L45.1118 3.05898L45.4282 2.95349Z" fill="#2C71C0"/>
</svg>
